<?xml version="1.0" encoding="UTF-8" standalone="no"?>
<svg
   xmlns:dc="http://purl.org/dc/elements/1.1/"
   xmlns:cc="http://creativecommons.org/ns#"
   xmlns:rdf="http://www.w3.org/1999/02/22-rdf-syntax-ns#"
   xmlns:svg="http://www.w3.org/2000/svg"
   xmlns="http://www.w3.org/2000/svg"
   viewBox="0 0 1587.4 1122.52"
   height="1122.52"
   width="1587.4"
   xml:space="preserve"
   id="svg2"
   version="1.1"><metadata
     id="metadata8"><rdf:RDF><cc:Work
         rdf:about=""><dc:format>image/svg+xml</dc:format><dc:type
           rdf:resource="http://purl.org/dc/dcmitype/StillImage" /></cc:Work></rdf:RDF></metadata><defs
     id="defs6" /><g
     transform="matrix(1.3333333,0,0,-1.3333333,0,1122.52)"
     id="g10"><g
       transform="scale(0.1)"
       id="g12"><path
         id="path14"
         style="fill:#cc291a;fill-opacity:1;fill-rule:nonzero;stroke:none"
         d="m 3866.55,3312.33 c 22.61,23 34.66,58.2 36.13,105.67 1.45,42.33 2.19,72.63 2.19,90.89 0,18.21 -0.74,47.8 -2.19,88.68 -1.47,47.45 -13.52,82.67 -36.13,105.65 -22.64,23 -52.94,34.49 -90.89,34.49 -38.69,0 -69.35,-11.49 -91.96,-34.49 -22.64,-22.98 -34.68,-58.2 -36.14,-105.65 -0.73,-20.44 -1.09,-50 -1.09,-88.68 0,-39.42 0.36,-69.74 1.09,-90.89 1.46,-47.47 13.5,-82.67 36.14,-105.67 22.61,-22.98 53.27,-34.48 91.96,-34.48 37.95,0 68.25,11.5 90.89,34.48 z M 3530.4,3189.15 c -59.85,50.39 -91.61,124.46 -95.26,222.29 -0.73,20.42 -1.09,51.81 -1.09,94.16 0,42.32 0.36,74.07 1.09,95.24 2.91,96.36 34.85,170.63 95.81,222.83 60.93,52.18 142.51,78.29 244.71,78.29 101.46,0 182.67,-26.11 243.63,-78.29 60.93,-52.2 92.88,-126.47 95.8,-222.83 1.46,-42.33 2.2,-74.09 2.2,-95.24 0,-21.91 -0.74,-53.3 -2.2,-94.16 -3.65,-97.83 -35.22,-171.9 -94.7,-222.29 -59.51,-50.36 -141.08,-75.53 -244.73,-75.53 -103.65,0 -185.41,25.17 -245.26,75.53" /><path
         id="path16"
         style="fill:#cc291a;fill-opacity:1;fill-rule:nonzero;stroke:none"
         d="m 4239.21,3178.21 c -39.42,43.06 -59.12,104.01 -59.12,182.85 v 305.49 c 0,8.03 2.74,14.6 8.22,19.71 5.47,5.09 11.86,7.65 19.15,7.65 h 145.63 c 8.02,0 14.78,-2.56 20.25,-7.65 5.48,-5.11 8.22,-11.68 8.22,-19.71 v -298.91 c 0,-67.89 30.28,-101.84 90.88,-101.84 29.18,0 52,8.94 68.43,26.82 16.43,17.89 24.64,42.88 24.64,75.02 v 298.91 c 0,8.03 2.73,14.6 8.21,19.71 5.48,5.09 12.22,7.65 20.26,7.65 h 144.53 c 8.02,0 14.59,-2.56 19.71,-7.65 5.09,-5.11 7.66,-11.68 7.66,-19.71 v -514.61 c 0,-7.32 -2.57,-13.69 -7.66,-19.16 -5.12,-5.47 -11.69,-8.23 -19.71,-8.23 h -133.59 c -8.04,0 -14.78,2.56 -20.25,7.68 -5.47,5.1 -8.22,11.66 -8.22,19.71 v 41.6 c -37.96,-53.3 -98.54,-79.92 -181.75,-79.92 -64.24,0 -116.06,21.51 -155.49,64.59" /><path
         id="path18"
         style="fill:#cc291a;fill-opacity:1;fill-rule:nonzero;stroke:none"
         d="m 4935.59,3342.45 v 202.56 h -86.51 c -7.29,0 -13.68,2.75 -19.15,8.22 -5.48,5.47 -8.22,11.84 -8.22,19.17 v 94.15 c 0,8.03 2.74,14.6 8.22,19.71 5.47,5.09 11.86,7.65 19.15,7.65 h 86.51 v 180.66 c 0,8.03 2.74,14.59 8.2,19.71 5.48,5.12 11.86,7.68 19.17,7.68 h 134.68 c 8.02,0 14.59,-2.56 19.7,-7.68 5.11,-5.12 7.66,-11.68 7.66,-19.71 v -180.66 h 136.87 c 8.03,0 14.78,-2.56 20.26,-7.65 5.48,-5.11 8.21,-11.68 8.21,-19.71 v -94.15 c 0,-8.06 -2.73,-14.62 -8.21,-19.71 -5.48,-5.12 -12.23,-7.68 -20.26,-7.68 H 5125 v -186.14 c 0,-25.56 4.75,-44.88 14.24,-58.03 9.48,-13.14 24.81,-19.7 45.99,-19.7 h 86.49 c 8.04,0 14.6,-2.76 19.72,-8.23 5.1,-5.46 7.67,-12.22 7.67,-20.25 v -100.72 c 0,-7.32 -2.57,-13.69 -7.67,-19.16 -5.12,-5.47 -11.68,-8.23 -19.72,-8.23 h -104.01 c -154.76,0 -232.12,72.63 -232.12,217.9" /><path
         id="path20"
         style="fill:#cc291a;fill-opacity:1;fill-rule:nonzero;stroke:none"
         d="m 5691.49,3295.91 c 15.33,20.07 23.71,45.44 25.18,76.12 1.46,20.42 2.19,34.29 2.19,41.59 0,8.02 -0.73,21.53 -2.19,40.5 -1.47,28.47 -10.04,52.02 -25.74,70.64 -15.7,18.61 -38.87,27.93 -69.52,27.93 -32.86,0 -56.39,-9.69 -70.62,-29.02 -14.24,-19.35 -22.45,-46.19 -24.64,-80.49 l -1.1,-33.95 1.1,-33.94 c 2.19,-34.32 10.4,-61.14 24.64,-80.46 14.23,-19.36 37.76,-29.03 70.62,-29.03 31.37,0 54.74,10.03 70.08,30.11 z m -300.56,-115.52 c -40.51,44.54 -62.25,108.04 -65.15,190.52 l -1.1,38.32 1.1,39.43 c 2.9,79.56 24.8,142.14 65.69,187.79 40.88,45.59 96.35,68.43 166.44,68.43 65.69,0 118.61,-21.18 158.76,-63.51 v 233.2 c 0,8.03 2.73,14.59 8.21,19.71 5.47,5.12 11.85,7.68 19.16,7.68 h 141.25 c 8.02,0 14.78,-2.56 20.25,-7.68 5.47,-5.12 8.21,-11.68 8.21,-19.71 v -722.63 c 0,-8.05 -2.74,-14.61 -8.21,-19.71 -5.47,-5.12 -12.23,-7.68 -20.25,-7.68 H 5755 c -7.31,0 -13.7,2.76 -19.17,8.23 -5.48,5.47 -8.22,11.84 -8.22,19.16 v 33.94 c -39.41,-48.17 -95.99,-72.26 -169.7,-72.26 -70.82,0 -126.47,22.24 -166.98,66.77" /><path
         id="path22"
         style="fill:#cc291a;fill-opacity:1;fill-rule:nonzero;stroke:none"
         d="m 6335.68,3279.5 c 14.59,18.62 23,47.23 25.18,85.93 0.73,7.31 1.11,21.92 1.11,43.8 0,21.92 -0.38,36.51 -1.11,43.8 -2.18,37.95 -10.59,66.43 -25.18,85.42 -14.62,18.98 -36.86,28.45 -66.77,28.45 -29.95,0 -52.21,-9.47 -66.8,-28.45 -14.62,-18.99 -22.99,-47.47 -25.19,-85.42 l -1.09,-43.8 1.09,-43.8 c 2.2,-38.7 10.57,-67.31 25.19,-85.93 14.59,-18.62 36.85,-27.92 66.8,-27.92 29.91,0 52.15,9.3 66.77,27.92 z m -278.65,-101.83 c -49.27,42.71 -76.09,103.47 -80.48,182.29 -0.73,9.49 -1.1,25.92 -1.1,49.27 0,23.36 0.37,39.78 1.1,49.28 4.39,77.36 31.93,137.78 82.67,181.2 50.73,43.43 120.61,65.17 209.69,65.17 89.04,0 158.91,-21.74 209.65,-65.17 50.75,-43.42 78.3,-103.84 82.67,-181.2 1.48,-18.98 2.21,-35.42 2.21,-49.28 0,-13.87 -0.73,-30.29 -2.21,-49.27 -4.37,-78.82 -31.19,-139.58 -80.47,-182.29 -49.27,-42.71 -119.9,-64.05 -211.85,-64.05 -91.99,0 -162.61,21.34 -211.88,64.05" /><path
         id="path24"
         style="fill:#cc291a;fill-opacity:1;fill-rule:nonzero;stroke:none"
         d="m 6986.06,3279.5 c 14.6,18.62 23,47.23 25.19,85.93 0.73,7.31 1.11,21.92 1.11,43.8 0,21.92 -0.38,36.51 -1.11,43.8 -2.19,37.95 -10.59,66.43 -25.19,85.42 -14.6,18.98 -36.85,28.45 -66.77,28.45 -29.93,0 -52.2,-9.47 -66.8,-28.45 -14.61,-18.99 -23,-47.47 -25.18,-85.42 l -1.11,-43.8 1.11,-43.8 c 2.18,-38.7 10.57,-67.31 25.18,-85.93 14.6,-18.62 36.87,-27.92 66.8,-27.92 29.92,0 52.17,9.3 66.77,27.92 z m -278.65,-101.83 c -49.28,42.71 -76.09,103.47 -80.47,182.29 -0.73,9.49 -1.11,25.92 -1.11,49.27 0,23.36 0.38,39.78 1.11,49.28 4.38,77.36 31.91,137.78 82.67,181.2 50.71,43.43 120.6,65.17 209.68,65.17 89.04,0 158.92,-21.74 209.67,-65.17 50.73,-43.42 78.28,-103.84 82.68,-181.2 1.43,-18.98 2.18,-35.42 2.18,-49.28 0,-13.87 -0.75,-30.29 -2.18,-49.27 -4.4,-78.82 -31.24,-139.58 -80.51,-182.29 -49.26,-42.71 -119.88,-64.05 -211.84,-64.05 -91.98,0 -162.61,21.34 -211.88,64.05" /><path
         id="path26"
         style="fill:#cc291a;fill-opacity:1;fill-rule:nonzero;stroke:none"
         d="m 7303.73,3132.78 c -5.47,5.47 -8.19,11.84 -8.19,19.16 v 513.52 c 0,8.01 2.53,14.78 7.64,20.26 5.12,5.47 11.68,8.19 19.71,8.19 h 133.6 c 8.01,0 14.78,-2.72 20.25,-8.19 5.48,-5.48 8.22,-12.25 8.22,-20.26 v -41.62 c 20.42,22.63 44.35,39.96 71.7,52.02 27.38,12.03 57.85,18.05 91.44,18.05 h 49.26 c 8.04,0 14.6,-2.56 19.72,-7.65 5.09,-5.11 7.67,-11.68 7.67,-19.71 v -119.36 c 0,-7.29 -2.58,-13.67 -7.67,-19.14 -5.12,-5.5 -11.68,-8.22 -19.72,-8.22 h -110.59 c -29.2,0 -51.63,-8.05 -67.32,-24.08 -15.72,-16.07 -23.54,-38.72 -23.54,-67.89 v -275.92 c 0,-8.05 -2.76,-14.61 -8.22,-19.71 -5.47,-5.12 -12.23,-7.68 -20.26,-7.68 h -144.54 c -7.29,0 -13.66,2.76 -19.16,8.23" /><path
         id="path28"
         style="fill:#cc291a;fill-opacity:1;fill-rule:nonzero;stroke:none"
         d="m 7798.63,3132.78 c -5.47,5.47 -8.22,11.84 -8.22,19.16 v 711.7 c 0,8.02 2.75,14.59 8.22,19.7 5.47,5.09 11.85,7.67 19.16,7.67 h 153.28 c 8.04,0 14.6,-2.58 19.72,-7.67 5.09,-5.11 7.67,-11.68 7.67,-19.7 v -567.18 h 328.47 c 8.03,0 14.79,-2.73 20.26,-8.22 5.47,-5.47 8.22,-12.22 8.22,-20.25 v -116.05 c 0,-8.05 -2.75,-14.61 -8.22,-19.71 -5.47,-5.12 -12.23,-7.68 -20.26,-7.68 h -509.14 c -7.31,0 -13.69,2.76 -19.16,8.23" /><path
         id="path30"
         style="fill:#cc291a;fill-opacity:1;fill-rule:nonzero;stroke:none"
         d="m 8739.87,3274.57 c 20.06,21.16 30.11,51.81 30.11,91.98 v 13.12 l -90.87,-15.32 c -61.33,-11.68 -91.98,-33.59 -91.98,-65.68 0,-16.82 7.11,-30.33 21.35,-40.53 14.23,-10.24 31.93,-15.33 53.1,-15.33 32.12,0 58.21,10.56 78.29,31.76 z m -238.7,-138.52 c -31.75,14.97 -56.57,35.59 -74.45,61.87 -17.88,26.27 -26.82,55.1 -26.82,86.51 0,49.63 20.62,89.94 61.86,120.96 41.24,31.04 97.99,52.38 170.26,64.08 l 135.77,20.8 v 13.14 c 0,26.98 -5.47,46.69 -16.41,59.13 -10.97,12.39 -29.58,18.6 -55.85,18.6 -14.62,0 -26.82,-2.56 -36.67,-7.66 -9.86,-5.12 -21.01,-12.78 -33.4,-23 -9.5,-8.03 -17.91,-13.87 -25.19,-17.51 -2.93,-5.11 -6.58,-7.66 -10.95,-7.66 h -127.03 c -7.29,0 -13.31,2.36 -18.04,7.1 -4.76,4.74 -6.77,10.43 -6.04,16.99 0.74,19.71 10.59,41.78 29.56,66.23 18.98,24.46 47.81,45.45 86.51,62.96 38.68,17.53 86.5,26.29 143.44,26.29 90.49,0 157.67,-19.9 201.47,-59.67 43.8,-39.82 65.68,-93.63 65.68,-161.52 v -331.75 c 0,-7.32 -2.56,-13.69 -7.64,-19.16 -5.12,-5.47 -11.7,-8.23 -19.71,-8.23 h -134.69 c -7.29,0 -13.69,2.76 -19.17,8.23 -5.47,5.47 -8.21,11.84 -8.21,19.16 v 38.31 c -16.07,-22.63 -38.31,-41.06 -66.78,-55.29 -28.47,-14.23 -62.41,-21.34 -101.83,-21.34 -38.71,0 -73.91,7.48 -105.67,22.43" /><path
         id="path32"
         style="fill:#cc291a;fill-opacity:1;fill-rule:nonzero;stroke:none"
         d="m 9387.51,3295.91 c 15.32,20.07 23.71,45.44 25.18,76.12 1.44,20.42 2.18,34.29 2.18,41.59 0,8.02 -0.74,21.53 -2.18,40.5 -1.47,28.47 -10.04,52.02 -25.73,70.64 -15.7,18.61 -38.86,27.93 -69.54,27.93 -32.83,0 -56.38,-9.69 -70.61,-29.02 -14.24,-19.35 -22.45,-46.19 -24.64,-80.49 l -1.09,-33.95 1.09,-33.94 c 2.19,-34.32 10.4,-61.14 24.64,-80.46 14.23,-19.36 37.78,-29.03 70.61,-29.03 31.39,0 54.76,10.03 70.09,30.11 z m -300.57,-115.52 c -40.5,44.54 -62.22,108.04 -65.14,190.52 l -1.09,38.32 1.09,39.43 c 2.92,79.56 24.8,142.14 65.68,187.79 40.89,45.59 96.37,68.43 166.44,68.43 65.7,0 118.62,-21.18 158.77,-63.51 v 233.2 c 0,8.03 2.72,14.59 8.22,19.71 5.47,5.12 11.84,7.68 19.16,7.68 h 141.23 c 8.03,0 14.77,-2.56 20.27,-7.68 5.47,-5.12 8.2,-11.68 8.2,-19.71 v -722.63 c 0,-8.05 -2.73,-14.61 -8.2,-19.71 -5.5,-5.12 -12.24,-7.68 -20.27,-7.68 h -130.28 c -7.32,0 -13.7,2.76 -19.16,8.23 -5.48,5.47 -8.23,11.84 -8.23,19.16 v 33.94 c -39.41,-48.17 -95.98,-72.26 -169.71,-72.26 -70.8,0 -126.45,22.24 -166.98,66.77" /><path
         id="path34"
         style="fill:#cc291a;fill-opacity:1;fill-rule:nonzero;stroke:none"
         d="m 9779.46,3138.79 c -40.14,16.78 -69.89,36.87 -89.23,60.22 -19.34,23.36 -29.01,44.51 -29.01,63.5 0,7.3 2.73,13.32 8.19,18.08 5.5,4.74 11.52,7.11 18.08,7.11 h 132.48 c 4.39,0 8.04,-1.48 10.95,-4.39 12.41,-8.02 19.35,-12.77 20.82,-14.21 13.86,-10.23 26.81,-18.07 38.87,-23.55 12.04,-5.47 26.44,-8.21 43.23,-8.21 19.72,0 35.95,3.84 48.73,11.48 12.76,7.68 19.13,18.43 19.13,32.32 0,11.68 -3.43,21.15 -10.37,28.46 -6.95,7.28 -20.09,14.41 -39.42,21.35 -19.35,6.93 -48.73,14.04 -88.14,21.36 -126.3,25.54 -189.42,83.93 -189.42,175.17 0,29.95 9.66,58.58 29.01,85.96 19.34,27.38 47.8,49.44 85.42,66.26 37.59,16.77 82.67,25.18 135.2,25.18 53.31,0 99.42,-8.23 138.52,-24.64 39,-16.44 68.8,-36.14 89.2,-59.12 20.5,-23 30.7,-43.99 30.7,-62.96 0,-6.58 -2.4,-12.43 -7.1,-17.53 -4.8,-5.12 -10.4,-7.66 -17,-7.66 h -120.4 c -6.6,0 -11.7,1.46 -15.4,4.37 -8.7,4.38 -17.5,9.85 -26.24,16.43 -13.13,8.77 -24.64,15.5 -34.49,20.26 -9.86,4.73 -22.43,7.11 -37.79,7.11 -18.24,0 -32.47,-4.01 -42.68,-12.03 -10.24,-8.06 -15.32,-18.27 -15.32,-30.66 0,-10.97 3.07,-19.9 9.3,-26.84 6.18,-6.94 18.96,-13.69 38.3,-20.25 19.34,-6.56 48.73,-13.52 88.12,-20.8 71.6,-12.43 123.6,-34.49 156.1,-66.25 32.4,-31.75 48.7,-68.81 48.7,-111.14 0,-54.75 -24.3,-98.37 -72.8,-130.83 -48.6,-32.49 -116.6,-48.72 -204.22,-48.72 -59.88,0 -109.88,8.39 -150.02,25.17" /><path
         id="path36"
         style="fill:#cc291a;fill-opacity:1;fill-rule:nonzero;stroke:none"
         d="m 1756.34,4406.08 409.99,235.19 438.6,263.79 276.5,177.99 136.67,82.63 c 0,0 162.09,92.17 279.68,-28.61 l 60.38,-92.16 c 0,0 60.39,-69.93 149.38,-6.36 88.99,63.56 371.85,254.26 371.85,254.26 0,0 527.59,314.64 635.65,368.67 108.06,54.03 260.61,143.02 260.61,143.02 0,0 136.66,88.99 149.38,92.17 12.71,3.18 80.16,51.82 128.19,63.13 36.02,8.47 75.21,35.39 167.39,-126.7 92.16,-162.09 273.32,-476.73 273.32,-476.73 l 50.85,-85.81 c 0,0 73.1,-95.35 174.8,-34.96 101.71,60.39 317.82,184.34 317.82,184.34 l 85.82,50.85 c 0,0 150.43,133.05 295.57,-25.43 157.89,-172.39 228.84,-270.15 228.84,-270.15 l 225.65,-324.18 136.66,-190.69 111.24,-150.97 c 0,0 74.69,-100.11 92.17,-116 17.48,-15.89 63.56,-65.15 71.5,-76.28 7.95,-11.12 33.38,-63.56 -19.06,-85.81 -52.44,-22.25 -84.23,-19.07 -120.77,-7.95 -36.55,11.13 -117.6,96.94 -155.73,139.85 -38.15,42.9 -290.81,330.53 -290.81,330.53 l -257.44,287.63 -76.27,79.45 c 0,0 -63.57,92.17 -225.66,60.39 -162.09,-31.78 -255.85,-65.15 -255.85,-65.15 0,0 -104.88,-42.91 -114.41,-85.81 -9.54,-42.91 19.07,-84.22 36.55,-106.47 17.48,-22.25 60.38,-90.58 60.38,-90.58 0,0 61.98,-87.4 -12.71,-131.9 -74.69,-44.49 -128.72,-30.19 -150.97,11.13 -22.24,41.31 -265.38,397.27 -265.38,397.27 l -216.11,362.32 c 0,0 -119.19,190.69 -195.47,201.82 0,0 -111.23,23.84 -208.17,-103.29 -96.94,-127.13 -305.11,-206.59 -305.11,-206.59 l -459.25,-263.79 -317.82,-182.75 -73.11,-44.5 c 0,0 -87.39,-46.08 -4.76,-174.8 l 87.4,-114.41 c 0,0 36.55,-71.51 55.62,-109.65 19.07,-38.14 49.26,-60.39 49.26,-60.39 0,0 55.62,-69.92 -7.95,-112.83 -63.56,-42.9 -116,-20.66 -149.37,14.31 -33.37,34.96 -230.42,287.63 -230.42,287.63 L 3266,4814.49 c 0,0 -77.87,103.29 -152.56,84.22 -74.69,-19.07 -241.54,-154.15 -241.54,-154.15 l -266.97,-160.5 -373.44,-208.17 c 0,0 -195.93,-123.44 -228.83,-139.84 -32.91,-16.41 -155.02,-73.03 -205,-63.57 -42.9,4.77 -215.39,106.51 -41.32,233.6" /></g></g></svg>